<svg id="Layer_1" data-name="Layer 1" xmlns="http://www.w3.org/2000/svg" viewBox="0 0 271 240.82"><title>Google Authenticator logo - Brandlogos.net</title><path d="M519.5,384h0a22.83,22.83,0,0,1-22.83,22.83h-78.8L384,338.34,420.56,275a22.83,22.83,0,0,1,31.18-8.36h0a22.83,22.83,0,0,1,8.36,31.18l-36.56,63.33h73.13A22.83,22.83,0,0,1,519.5,384Z" transform="translate(-248.5 -263.59)" style="fill:#1a73e8"/><path d="M451.75,501.35h0A22.83,22.83,0,0,1,420.56,493L384,429.66,347.44,493a22.83,22.83,0,0,1-31.18,8.36h0a22.83,22.83,0,0,1-8.36-31.18l36.56-63.33L384,405.36l39.55,1.47,36.56,63.33A22.83,22.83,0,0,1,451.75,501.35Z" transform="translate(-248.5 -263.59)" style="fill:#ea4335"/><path d="M384,338.34l-10.31,28-29.24-5.15-36.56-63.33a22.83,22.83,0,0,1,8.36-31.18h0A22.83,22.83,0,0,1,347.44,275Z" transform="translate(-248.5 -263.59)" style="fill:#fbbc04"/><path d="M378.11,361.17,351.6,406.83H271.33A22.83,22.83,0,0,1,248.5,384h0a22.83,22.83,0,0,1,22.83-22.83Z" transform="translate(-248.5 -263.59)" style="fill:#34a853"/><polygon points="175.04 143.24 95.95 143.24 135.5 74.75 175.04 143.24" style="fill:#185db7"/></svg>